<svg xmlns="http://www.w3.org/2000/svg" xmlns:xlink="http://www.w3.org/1999/xlink" viewBox="0 0 1280 1024"><defs><style>.cls-1{isolation:isolate;}.cls-2{fill:url(#Degradado_sin_nombre_30);}.cls-3{fill:url(#Degradado_sin_nombre_30-2);}.cls-4{fill:url(#Degradado_sin_nombre_30-3);}.cls-5{fill:url(#Degradado_sin_nombre_30-4);}.cls-6{font-size:71.62px;letter-spacing:-0.02em;}.cls-19,.cls-36,.cls-50,.cls-6,.cls-8{fill:#fff;}.cls-6,.cls-8{font-family:LemonMilk, "Lemon/Milk";}.cls-7{letter-spacing:0em;}.cls-8{font-size:32.05px;}.cls-9{letter-spacing:-0.07em;}.cls-10{letter-spacing:-0.06em;}.cls-11{letter-spacing:-0.12em;}.cls-12{letter-spacing:-0.07em;}.cls-13{letter-spacing:-0.08em;}.cls-14{letter-spacing:-0.02em;}.cls-15{letter-spacing:0em;}.cls-16{letter-spacing:-0.16em;}.cls-17{letter-spacing:-0.06em;}.cls-18{letter-spacing:0em;}.cls-19{font-size:26.83px;font-family:CaviarDreams, Caviar Dreams;}.cls-20{letter-spacing:-0.06em;}.cls-21{letter-spacing:0em;}.cls-22{fill:url(#Degradado_sin_nombre_3);}.cls-23{opacity:0.7;mix-blend-mode:multiply;}.cls-24,.cls-25,.cls-26,.cls-27,.cls-28,.cls-29,.cls-30,.cls-31,.cls-32,.cls-33,.cls-34,.cls-35,.cls-38,.cls-39,.cls-40,.cls-41,.cls-42,.cls-43,.cls-44,.cls-45,.cls-46,.cls-47,.cls-48,.cls-49{fill:#818181;}.cls-24,.cls-25,.cls-26,.cls-27,.cls-28,.cls-29,.cls-30,.cls-31,.cls-32,.cls-33,.cls-34,.cls-35,.cls-36{fill-rule:evenodd;}.cls-24,.cls-38,.cls-52{opacity:0;}.cls-25,.cls-39{opacity:0.09;}.cls-26,.cls-40{opacity:0.18;}.cls-27,.cls-41{opacity:0.27;}.cls-28,.cls-42{opacity:0.36;}.cls-29,.cls-43{opacity:0.45;}.cls-30,.cls-44{opacity:0.55;}.cls-31,.cls-45{opacity:0.64;}.cls-32,.cls-46{opacity:0.73;}.cls-33,.cls-47{opacity:0.82;}.cls-34,.cls-48{opacity:0.91;}.cls-37{fill:url(#Degradado_sin_nombre_3-2);}.cls-51{fill:url(#Degradado_sin_nombre_3-3);}.cls-53{opacity:0.09;}.cls-54{opacity:0.18;}.cls-55{opacity:0.27;}.cls-56{opacity:0.36;}.cls-57{opacity:0.45;}.cls-58{opacity:0.55;}.cls-59{opacity:0.64;}.cls-60{opacity:0.73;}.cls-61{opacity:0.82;}.cls-62{opacity:0.91;}.cls-63{fill:url(#Degradado_sin_nombre_3-4);}</style><linearGradient id="Degradado_sin_nombre_30" x1="724.75" y1="554.15" x2="829.02" y2="554.15" gradientUnits="userSpaceOnUse"><stop offset="0" stop-color="#ff0404"/><stop offset="0.46" stop-color="#00ae00"/><stop offset="1" stop-color="#003cb8"/></linearGradient><linearGradient id="Degradado_sin_nombre_30-2" x1="448.84" y1="206.5" x2="553.11" y2="206.5" xlink:href="#Degradado_sin_nombre_30"/><linearGradient id="Degradado_sin_nombre_30-3" x1="496.56" y1="288.94" x2="741.86" y2="534.24" xlink:href="#Degradado_sin_nombre_30"/><linearGradient id="Degradado_sin_nombre_30-4" x1="642.29" y1="163.91" x2="816.3" y2="337.93" xlink:href="#Degradado_sin_nombre_30"/><linearGradient id="Degradado_sin_nombre_3" x1="585.6" y1="903.66" x2="585.6" y2="975.59" gradientUnits="userSpaceOnUse"><stop offset="0" stop-color="#40383e"/><stop offset="0.17" stop-color="#30292f"/><stop offset="0.45" stop-color="#1c161a"/><stop offset="0.73" stop-color="#0f0b0e"/><stop offset="1" stop-color="#0b070a"/></linearGradient><linearGradient id="Degradado_sin_nombre_3-2" x1="476.04" y1="905.75" x2="476.04" y2="978.69" xlink:href="#Degradado_sin_nombre_3"/><linearGradient id="Degradado_sin_nombre_3-3" x1="803.38" y1="903.91" x2="803.38" y2="976.85" xlink:href="#Degradado_sin_nombre_3"/><linearGradient id="Degradado_sin_nombre_3-4" x1="694.17" y1="905.48" x2="694.17" y2="978.42" xlink:href="#Degradado_sin_nombre_3"/></defs><title>cooming_soon</title><g class="cls-1"><g id="Layer_1" data-name="Layer 1"><rect x="-0.12" y="-0.48" width="1280.12" height="1024.48"/><polygon class="cls-2" points="724.75 606.25 724.75 588.89 811.66 588.89 811.66 502.06 829.02 502.06 829.02 606.25 724.75 606.25"/><polygon class="cls-3" points="553.11 154.4 553.11 171.76 466.19 171.76 466.19 258.59 448.84 258.59 448.84 154.4 553.11 154.4"/><path class="cls-4" d="M614.79,359.93a120.41,120.41,0,0,1-18.19-24.41c-26.66,17.79-44.5,47.83-44.5,81.89a90,90,0,0,0,4.15,27.32,86.88,86.88,0,0,0-9,38.69A88.49,88.49,0,0,0,549,500.78a115.75,115.75,0,0,1-23.77-36.58,119.88,119.88,0,0,1-8.65-45.42c0-49.15,27.43-92.13,67.53-115.53A122.93,122.93,0,0,1,581,275.9q0-3,.14-6C524,296.37,483.45,353.65,483.45,420c0,54.1,26.86,97.61,67.76,124.13a167.51,167.51,0,0,0,32,16.18,180.89,180.89,0,0,0,26.21,7.88q7.08,1.54,14.34,2.57c3.56.52,7.14.92,10.74,1.24h.23a37.15,37.15,0,0,0,4.1-.21,44.36,44.36,0,0,0,7-1.14,33.09,33.09,0,0,0,3.41-1,40.59,40.59,0,0,0,4.93-1.86,33.69,33.69,0,0,0,3.15-1.52,40.24,40.24,0,0,0,4.21-2.43,1.68,1.68,0,0,0,.29-.2c.48-.32,1-.63,1.43-1,.63-.43,1.23-.89,1.83-1.38a21.41,21.41,0,0,0,2-1.63,3,3,0,0,0,.54-.49,25.46,25.46,0,0,0,1.92-1.72,16.19,16.19,0,0,0,1.23-1.26A11.77,11.77,0,0,0,672,555a13.32,13.32,0,0,0,1.18-1.34,15.56,15.56,0,0,0,1.09-1.29,17.51,17.51,0,0,0,1.17-1.55c.43-.49.77-1,1.15-1.52a30.92,30.92,0,0,0,1.77-2.72c.66-1.06,1.29-2.15,1.86-3.26s1.15-2.26,1.66-3.41a48.13,48.13,0,0,0,1.75-4.5A53.77,53.77,0,0,0,686.59,518a52.63,52.63,0,0,0-1.86-13.83c-.31-1.18-.69-2.32-1.09-3.47a52,52,0,0,0-46.74-34.6,15.51,15.51,0,0,0-4.58,0,17.35,17.35,0,0,0,2.29,34.54c.37,0,.77,0,1.15,0A17.36,17.36,0,0,1,652,518a18,18,0,0,1-.32,3.29,10.07,10.07,0,0,1-.31,1.29.65.65,0,0,1-.09.32,5.12,5.12,0,0,1-.29.86,5.91,5.91,0,0,1-.34.94l-.09.2c-.17.4-.37.8-.57,1.21s-.49.85-.74,1.26a9.79,9.79,0,0,1-.63.91,1.64,1.64,0,0,0-.2.29c-.29.37-.58.71-.89,1.06l0,.06c-.34.34-.72.71-1.09,1a13.77,13.77,0,0,1-1.12,1L645,532l-.86.6a17.44,17.44,0,0,1-4.32,2c-.35.12-.69.2-1.06.29a21.1,21.1,0,0,1-2.27.4h-.05a17.39,17.39,0,0,1-1.78.09,18.23,18.23,0,0,1-1.83-.09,53.5,53.5,0,0,1-10.6-1.43.23.23,0,0,1-.2-.06c-.8-.2-1.63-.43-2.43-.69s-1.67-.51-2.5-.8c-1.63-.6-3.26-1.26-4.81-2-.77-.38-1.54-.78-2.32-1.18s-1.49-.83-2.23-1.29-1.18-.71-1.72-1.08c-.74-.49-1.49-1-2.21-1.55-.51-.37-1-.77-1.54-1.18a52.4,52.4,0,0,1-6.36-6,51.52,51.52,0,0,1-13.17-33.91,5.31,5.31,0,0,1,0-.69,53,53,0,0,1,16-37.95,51,51,0,0,1,35.82-14.75,87.66,87.66,0,0,1,82.29,57.66,84.7,84.7,0,0,1,3.49,12.34A88,88,0,0,1,722,518a82.89,82.89,0,0,1-.43,8.51,86.64,86.64,0,0,1-13,37.92,87.6,87.6,0,0,1-71.43,40.81c-.89.06-1.78.06-2.67.06-.54,0-1.08,0-1.63,0h-.06c-.05,0-.14,0-.17,0h-.2c-2.09-.17-4.12-.37-6.21-.6-3.44-.38-6.85-.83-10.26-1.35,0,0,0,0-.08,0a233.88,233.88,0,0,1-102.22-42.24c-40.32-32.08-65.58-79.94-65.58-139.2A204,204,0,0,1,591,227.24,191.72,191.72,0,0,1,616.74,221V275.9a88.64,88.64,0,0,0,1,13.31,87.28,87.28,0,0,0,84.83,74c.49,0,1,0,1.46,0s.83,0,1.24,0H827.42v34.71H658a66.45,66.45,0,0,1-9.74-.68A87.17,87.17,0,0,0,582.89,413c-.15-1.66-.23-3.35-.23-5.06A51.92,51.92,0,0,1,614.79,359.93Z"/><path class="cls-5" d="M824.07,247.48A123.73,123.73,0,0,0,703.89,153c-3.64,0-7.23.16-10.79.47-5.45.47-10.34.73-15.81.73H652c0,.46,0,1,0,1.41v119c0,16.24,7,32,19.77,42q1.14.9,2.34,1.74a46.5,46.5,0,0,0,6.73,4A50.69,50.69,0,0,0,692,326.45a52.33,52.33,0,0,0,12,1.4,52.07,52.07,0,0,0,50.18-38.41A52.7,52.7,0,0,0,756,275.9a52,52,0,0,0-52-52c-.83,0-1.66,0-2.49.06a52.2,52.2,0,0,0-14.86,2.92V190.32A86.46,86.46,0,0,1,704,188.57,87.14,87.14,0,0,1,791.5,273c0,1,.06,1.92.06,2.87a87.34,87.34,0,0,1-16.47,50.92h52.33V275.9A120.89,120.89,0,0,0,824.07,247.48ZM696.5,260.29a17,17,0,0,1,7.53-1.75,17.43,17.43,0,1,1-7.53,1.75Z"/><text class="cls-6" transform="translate(436.71 707.19)">C<tspan class="cls-7" x="50.53" y="0">amaleón</tspan></text><text class="cls-8" transform="translate(81.22 90.47)">pr<tspan class="cls-9" x="40.62" y="0">ó</tspan><tspan x="65.19" y="0">ximamente</tspan></text><text class="cls-8" transform="translate(383.22 819.47)"><tspan class="cls-10">c</tspan><tspan x="21.19" y="0">on</tspan><tspan class="cls-11" x="71.43" y="0">t</tspan><tspan class="cls-12" x="86.26" y="0">a</tspan><tspan x="108.17" y="0">c</tspan><tspan class="cls-13" x="131.28" y="0">t</tspan><tspan x="147.59" y="0">o: 8835-6109/8461-4168</tspan></text><text class="cls-8" transform="translate(326.22 862.47)"><tspan class="cls-14">c</tspan><tspan class="cls-15" x="22.61" y="0">amaleonfilm</tspan><tspan class="cls-10" x="254.87" y="0">c</tspan><tspan x="276.05" y="0">om</tspan><tspan class="cls-16" x="330.72" y="0">p</tspan><tspan x="345.45" y="0">any@gmail.</tspan><tspan class="cls-17" x="562.62" y="0">c</tspan><tspan class="cls-18" x="583.81" y="0">om</tspan></text><text class="cls-19" transform="translate(545.65 746.09)">FILM COM<tspan class="cls-20" x="130.51" y="0">P</tspan><tspan class="cls-21" x="143.06" y="0">ANY</tspan></text><path class="cls-22" d="M585.6,978.16a36.47,36.47,0,1,1,36.47-36.47A36.51,36.51,0,0,1,585.6,978.16Z"/><g class="cls-23"><path class="cls-24" d="M589.75,947.74v18.33a.48.48,0,0,0,.48.48H597a.48.48,0,0,0,.48-.48V947.44h4.94a.48.48,0,0,0,.47-.44l.48-5.61a.48.48,0,0,0-.48-.52h-5.41v-4a1.69,1.69,0,0,1,1.69-1.69H603a.47.47,0,0,0,.48-.48v-5.61a.48.48,0,0,0-.48-.48h-6.42a6.83,6.83,0,0,0-6.83,6.83v5.41h-3.41a.48.48,0,0,0-.47.48V947a.47.47,0,0,0,.47.48h3.41Z"/><path class="cls-25" d="M588.92,947.2v18.33a.48.48,0,0,0,.48.48h6.81a.48.48,0,0,0,.48-.48V946.9h4.93a.48.48,0,0,0,.48-.43l.47-5.62a.48.48,0,0,0-.47-.51h-5.41v-4a1.69,1.69,0,0,1,1.69-1.69h3.8a.48.48,0,0,0,.48-.47v-5.62a.48.48,0,0,0-.48-.47h-6.43a6.82,6.82,0,0,0-6.83,6.82v5.42h-3.4a.48.48,0,0,0-.48.47v5.62a.48.48,0,0,0,.48.47h3.4Z"/><path class="cls-26" d="M588.1,946.67V965a.48.48,0,0,0,.48.48h6.8a.48.48,0,0,0,.48-.48V946.37h4.94a.48.48,0,0,0,.47-.44l.48-5.61a.48.48,0,0,0-.48-.52h-5.41v-4a1.69,1.69,0,0,1,1.69-1.69h3.8a.48.48,0,0,0,.48-.48V928a.47.47,0,0,0-.48-.48h-6.42a6.83,6.83,0,0,0-6.83,6.83v5.41h-3.41a.47.47,0,0,0-.47.48v5.61a.48.48,0,0,0,.47.48h3.41Z"/><path class="cls-27" d="M587.27,946.13v18.33a.48.48,0,0,0,.48.48h6.81a.47.47,0,0,0,.47-.48V945.83H600a.49.49,0,0,0,.48-.44l.47-5.61a.48.48,0,0,0-.48-.52H595v-4a1.69,1.69,0,0,1,1.69-1.69h3.81a.48.48,0,0,0,.48-.48V927.5a.49.49,0,0,0-.48-.48H594.1a6.83,6.83,0,0,0-6.83,6.83v5.41h-3.4a.49.49,0,0,0-.48.48v5.61a.48.48,0,0,0,.48.48h3.4Z"/><path class="cls-28" d="M586.45,945.59v18.34a.47.47,0,0,0,.47.47h6.81a.47.47,0,0,0,.48-.47V945.3h4.93a.48.48,0,0,0,.48-.44l.47-5.61a.47.47,0,0,0-.47-.52h-5.41v-4a1.69,1.69,0,0,1,1.69-1.69h3.8a.48.48,0,0,0,.48-.48V927a.47.47,0,0,0-.48-.47h-6.42a6.82,6.82,0,0,0-6.83,6.83v5.41H583a.47.47,0,0,0-.47.48v5.61a.48.48,0,0,0,.47.48h3.41Z"/><path class="cls-29" d="M585.62,945.06v18.33a.49.49,0,0,0,.48.48h6.81a.48.48,0,0,0,.47-.48V944.76h4.94a.49.49,0,0,0,.48-.44l.47-5.61a.48.48,0,0,0-.48-.52h-5.41v-4a1.69,1.69,0,0,1,1.69-1.69h3.81a.47.47,0,0,0,.47-.48v-5.61a.47.47,0,0,0-.47-.48h-6.43a6.83,6.83,0,0,0-6.83,6.83v5.41h-3.4a.48.48,0,0,0-.48.48v5.61a.47.47,0,0,0,.48.48h3.4Z"/><path class="cls-30" d="M584.8,944.52v18.33a.47.47,0,0,0,.47.48h6.81a.48.48,0,0,0,.48-.48V944.22h4.93a.48.48,0,0,0,.48-.43l.47-5.62a.46.46,0,0,0-.47-.51h-5.41v-4a1.69,1.69,0,0,1,1.69-1.69h3.8a.47.47,0,0,0,.48-.47v-5.62a.48.48,0,0,0-.48-.48h-6.43a6.82,6.82,0,0,0-6.82,6.83v5.42h-3.41a.48.48,0,0,0-.48.47v5.62a.48.48,0,0,0,.48.47h3.41Z"/><path class="cls-31" d="M584,944v18.33a.48.48,0,0,0,.48.48h6.81a.48.48,0,0,0,.47-.48V943.69h4.94a.47.47,0,0,0,.47-.44l.48-5.61a.48.48,0,0,0-.48-.52h-5.41v-4a1.69,1.69,0,0,1,1.69-1.69h3.81a.48.48,0,0,0,.47-.48v-5.61a.47.47,0,0,0-.47-.48H590.8a6.83,6.83,0,0,0-6.83,6.83v5.41h-3.4a.47.47,0,0,0-.48.48v5.61a.48.48,0,0,0,.48.48H584Z"/><path class="cls-32" d="M583.15,943.45v18.33a.48.48,0,0,0,.47.48h6.81a.49.49,0,0,0,.48-.48V943.15h4.93a.48.48,0,0,0,.48-.44l.47-5.61a.47.47,0,0,0-.47-.52h-5.41v-4a1.69,1.69,0,0,1,1.69-1.69h3.8a.47.47,0,0,0,.48-.48v-5.61a.48.48,0,0,0-.48-.48H590a6.82,6.82,0,0,0-6.82,6.83v5.41h-3.41a.49.49,0,0,0-.48.48v5.61a.48.48,0,0,0,.48.48h3.41Z"/><path class="cls-33" d="M582.32,942.91v18.34a.47.47,0,0,0,.48.47h6.8a.47.47,0,0,0,.48-.47V942.61H595a.46.46,0,0,0,.47-.43l.48-5.62a.48.48,0,0,0-.48-.51h-5.41v-4a1.69,1.69,0,0,1,1.69-1.69h3.81a.47.47,0,0,0,.47-.47v-5.62a.47.47,0,0,0-.47-.47h-6.43a6.83,6.83,0,0,0-6.83,6.83v5.41h-3.4a.47.47,0,0,0-.48.47v5.62a.47.47,0,0,0,.48.47h3.4Z"/><path class="cls-34" d="M581.49,942.38v18.33a.49.49,0,0,0,.48.48h6.81a.49.49,0,0,0,.48-.48V942.08h4.93a.48.48,0,0,0,.48-.44l.47-5.61a.47.47,0,0,0-.47-.52h-5.41v-4a1.68,1.68,0,0,1,1.69-1.69h3.8a.49.49,0,0,0,.48-.48v-5.61a.48.48,0,0,0-.48-.48h-6.43a6.83,6.83,0,0,0-6.83,6.83v5.41h-3.4a.48.48,0,0,0-.48.48v5.61a.48.48,0,0,0,.48.48h3.4Z"/><path class="cls-35" d="M580.67,941.84v18.33a.47.47,0,0,0,.48.48H588a.47.47,0,0,0,.48-.48V941.54h4.94a.48.48,0,0,0,.47-.43l.48-5.62a.48.48,0,0,0-.48-.52h-5.41v-4a1.69,1.69,0,0,1,1.69-1.69h3.8a.47.47,0,0,0,.48-.48v-5.61a.48.48,0,0,0-.48-.48H587.5a6.83,6.83,0,0,0-6.83,6.83V935h-3.4a.48.48,0,0,0-.48.48v5.62a.47.47,0,0,0,.48.47h3.4Z"/></g><path class="cls-36" d="M580.67,941.84v18.33a.47.47,0,0,0,.48.48H588a.47.47,0,0,0,.48-.48V941.54h4.94a.48.48,0,0,0,.47-.43l.48-5.62a.48.48,0,0,0-.48-.52h-5.41v-4a1.69,1.69,0,0,1,1.69-1.69h3.8a.47.47,0,0,0,.48-.48v-5.61a.48.48,0,0,0-.48-.48H587.5a6.83,6.83,0,0,0-6.83,6.83V935h-3.4a.48.48,0,0,0-.48.48v5.62a.47.47,0,0,0,.48.47h3.4Z"/><path class="cls-37" d="M476,978.69a36.47,36.47,0,1,1,36.47-36.47A36.51,36.51,0,0,1,476,978.69Z"/><g class="cls-23"><path class="cls-38" d="M497.6,937.78a2.25,2.25,0,1,1-2.24-2.25A2.24,2.24,0,0,1,497.6,937.78Zm-6.18,10.06a6,6,0,1,0-6,6A6,6,0,0,0,491.42,947.84Zm3.39,0a9.43,9.43,0,1,1-9.43-9.43A9.44,9.44,0,0,1,494.81,947.84Zm5.88,7.95a7.9,7.9,0,0,1-7.9,7.9H477.44a7.9,7.9,0,0,1-7.9-7.9V940.44a7.9,7.9,0,0,1,7.9-7.9h15.35a7.9,7.9,0,0,1,7.9,7.9Zm3.77-15.52a11.5,11.5,0,0,0-11.5-11.5H477.27a11.5,11.5,0,0,0-11.5,11.5V956a11.5,11.5,0,0,0,11.5,11.5H493a11.5,11.5,0,0,0,11.5-11.5Z"/><path class="cls-39" d="M496.78,937.24a2.25,2.25,0,1,1-2.25-2.24A2.25,2.25,0,0,1,496.78,937.24Zm-6.19,10.07a6,6,0,1,0-6,6A6,6,0,0,0,490.59,947.31Zm3.39,0a9.43,9.43,0,1,1-9.43-9.43A9.44,9.44,0,0,1,494,947.31Zm5.88,7.94a7.9,7.9,0,0,1-7.9,7.9H476.62a7.9,7.9,0,0,1-7.9-7.9V939.9a7.89,7.89,0,0,1,7.9-7.89H492a7.9,7.9,0,0,1,7.9,7.89Zm3.78-15.52a11.5,11.5,0,0,0-11.5-11.5h-15.7a11.5,11.5,0,0,0-11.5,11.5v15.7a11.5,11.5,0,0,0,11.5,11.5h15.7a11.5,11.5,0,0,0,11.5-11.5Z"/><path class="cls-40" d="M496,936.71a2.25,2.25,0,1,1-2.24-2.25A2.24,2.24,0,0,1,496,936.71Zm-6.18,10.06a6,6,0,1,0-6,6A6,6,0,0,0,489.77,946.77Zm3.39,0a9.43,9.43,0,1,1-9.43-9.43A9.44,9.44,0,0,1,493.16,946.77Zm5.88,8a7.9,7.9,0,0,1-7.9,7.89H475.79a7.9,7.9,0,0,1-7.9-7.89V939.37a7.9,7.9,0,0,1,7.9-7.9h15.35a7.9,7.9,0,0,1,7.9,7.9Zm3.77-15.52a11.5,11.5,0,0,0-11.5-11.5H475.62a11.5,11.5,0,0,0-11.5,11.5v15.69a11.5,11.5,0,0,0,11.5,11.5h15.69a11.5,11.5,0,0,0,11.5-11.5Z"/><path class="cls-41" d="M495.13,936.17a2.25,2.25,0,1,1-2.25-2.24A2.25,2.25,0,0,1,495.13,936.17Zm-6.19,10.06a6,6,0,1,0-6,6A6,6,0,0,0,488.94,946.23Zm3.39,0a9.43,9.43,0,1,1-9.43-9.42A9.44,9.44,0,0,1,492.33,946.23Zm5.88,7.95a7.9,7.9,0,0,1-7.9,7.9H475a7.9,7.9,0,0,1-7.9-7.9V938.83a7.9,7.9,0,0,1,7.9-7.9h15.34a7.9,7.9,0,0,1,7.9,7.9ZM502,938.66a11.5,11.5,0,0,0-11.5-11.5h-15.7a11.5,11.5,0,0,0-11.5,11.5v15.69a11.5,11.5,0,0,0,11.5,11.5h15.7a11.5,11.5,0,0,0,11.5-11.5Z"/><path class="cls-42" d="M494.3,935.63a2.25,2.25,0,1,1-2.24-2.24A2.24,2.24,0,0,1,494.3,935.63Zm-6.18,10.07a6,6,0,1,0-6,6A6,6,0,0,0,488.12,945.7Zm3.39,0a9.43,9.43,0,1,1-9.43-9.43A9.44,9.44,0,0,1,491.51,945.7Zm5.88,7.94a7.9,7.9,0,0,1-7.9,7.9H474.14a7.9,7.9,0,0,1-7.9-7.9V938.3a7.9,7.9,0,0,1,7.9-7.9h15.35a7.9,7.9,0,0,1,7.9,7.9Zm3.77-15.52a11.5,11.5,0,0,0-11.5-11.5H474a11.5,11.5,0,0,0-11.5,11.5v15.7a11.5,11.5,0,0,0,11.5,11.5h15.69a11.5,11.5,0,0,0,11.5-11.5Z"/><path class="cls-43" d="M493.47,935.1a2.24,2.24,0,1,1-2.24-2.25A2.24,2.24,0,0,1,493.47,935.1Zm-6.18,10.06a6,6,0,1,0-6,6A6,6,0,0,0,487.29,945.16Zm3.39,0a9.43,9.43,0,1,1-9.43-9.43A9.44,9.44,0,0,1,490.68,945.16Zm5.88,8a7.9,7.9,0,0,1-7.9,7.9H473.31a7.9,7.9,0,0,1-7.89-7.9V937.76a7.9,7.9,0,0,1,7.89-7.9h15.35a7.9,7.9,0,0,1,7.9,7.9Zm3.77-15.52a11.5,11.5,0,0,0-11.5-11.5H473.14a11.5,11.5,0,0,0-11.5,11.5v15.69a11.5,11.5,0,0,0,11.5,11.5h15.69a11.5,11.5,0,0,0,11.5-11.5Z"/><path class="cls-44" d="M492.65,934.56a2.25,2.25,0,1,1-2.25-2.24A2.25,2.25,0,0,1,492.65,934.56Zm-6.18,10.06a6,6,0,1,0-6,6A6,6,0,0,0,486.47,944.62Zm3.38,0a9.43,9.43,0,1,1-9.42-9.42A9.44,9.44,0,0,1,489.85,944.62Zm5.88,8a7.9,7.9,0,0,1-7.89,7.9H472.49a7.9,7.9,0,0,1-7.9-7.9V937.22a7.9,7.9,0,0,1,7.9-7.89h15.35a7.89,7.89,0,0,1,7.89,7.89Zm3.78-15.52a11.5,11.5,0,0,0-11.5-11.5H472.32a11.5,11.5,0,0,0-11.5,11.5v15.69a11.49,11.49,0,0,0,11.5,11.5H488a11.5,11.5,0,0,0,11.5-11.5Z"/><path class="cls-45" d="M491.82,934a2.25,2.25,0,1,1-2.24-2.25A2.24,2.24,0,0,1,491.82,934Zm-6.18,10.06a6,6,0,1,0-6,6A6,6,0,0,0,485.64,944.09Zm3.39,0a9.43,9.43,0,1,1-9.43-9.43A9.44,9.44,0,0,1,489,944.09Zm5.88,7.95a7.9,7.9,0,0,1-7.9,7.89H471.66a7.89,7.89,0,0,1-7.89-7.89V936.69a7.9,7.9,0,0,1,7.89-7.9H487a7.9,7.9,0,0,1,7.9,7.9Zm3.77-15.53a11.5,11.5,0,0,0-11.5-11.5H471.49a11.5,11.5,0,0,0-11.5,11.5v15.7a11.5,11.5,0,0,0,11.5,11.5h15.69a11.5,11.5,0,0,0,11.5-11.5Z"/><path class="cls-46" d="M491,933.49a2.25,2.25,0,1,1-2.25-2.24A2.24,2.24,0,0,1,491,933.49Zm-6.19,10.06a6,6,0,1,0-6,6A6,6,0,0,0,484.81,943.55Zm3.39,0a9.43,9.43,0,1,1-9.42-9.43A9.44,9.44,0,0,1,488.2,943.55Zm5.88,8a7.9,7.9,0,0,1-7.89,7.9H470.84a7.9,7.9,0,0,1-7.9-7.9V936.15a7.9,7.9,0,0,1,7.9-7.9h15.35a7.9,7.9,0,0,1,7.89,7.9ZM497.86,936a11.5,11.5,0,0,0-11.5-11.5H470.67A11.5,11.5,0,0,0,459.16,936v15.69a11.5,11.5,0,0,0,11.51,11.5h15.69a11.5,11.5,0,0,0,11.5-11.5Z"/><path class="cls-47" d="M490.17,933a2.25,2.25,0,1,1-2.24-2.24A2.24,2.24,0,0,1,490.17,933ZM484,943a6,6,0,1,0-6,6A6,6,0,0,0,484,943Zm3.39,0a9.43,9.43,0,1,1-9.43-9.43A9.44,9.44,0,0,1,487.38,943Zm5.88,7.94a7.9,7.9,0,0,1-7.9,7.9H470a7.9,7.9,0,0,1-7.9-7.9V935.61a7.9,7.9,0,0,1,7.9-7.89h15.35a7.9,7.9,0,0,1,7.9,7.89ZM497,935.44a11.5,11.5,0,0,0-11.5-11.5H469.84a11.5,11.5,0,0,0-11.5,11.5v15.7a11.5,11.5,0,0,0,11.5,11.5h15.69a11.5,11.5,0,0,0,11.5-11.5Z"/><path class="cls-48" d="M489.35,932.42a2.25,2.25,0,1,1-2.25-2.25A2.24,2.24,0,0,1,489.35,932.42Zm-6.19,10.06a6,6,0,1,0-6,6A6,6,0,0,0,483.16,942.48Zm3.39,0a9.43,9.43,0,1,1-9.43-9.43A9.44,9.44,0,0,1,486.55,942.48Zm5.88,7.95a7.89,7.89,0,0,1-7.9,7.89H469.19a7.9,7.9,0,0,1-7.9-7.89V935.08a7.9,7.9,0,0,1,7.9-7.9h15.34a7.9,7.9,0,0,1,7.9,7.9Zm3.78-15.52a11.5,11.5,0,0,0-11.5-11.5H469a11.5,11.5,0,0,0-11.5,11.5V950.6A11.5,11.5,0,0,0,469,962.1h15.7a11.5,11.5,0,0,0,11.5-11.5Z"/><path class="cls-49" d="M488.52,931.88a2.25,2.25,0,1,1-2.24-2.24A2.24,2.24,0,0,1,488.52,931.88Zm-6.18,10.06a6,6,0,1,0-6,6A6,6,0,0,0,482.34,941.94Zm3.39,0a9.43,9.43,0,1,1-9.43-9.42A9.44,9.44,0,0,1,485.73,941.94Zm5.88,7.95a7.9,7.9,0,0,1-7.9,7.9H468.36a7.9,7.9,0,0,1-7.9-7.9V934.54a7.9,7.9,0,0,1,7.9-7.9h15.35a7.9,7.9,0,0,1,7.9,7.9Zm3.77-15.52a11.5,11.5,0,0,0-11.5-11.5H468.19a11.5,11.5,0,0,0-11.5,11.5v15.69a11.5,11.5,0,0,0,11.5,11.5h15.69a11.5,11.5,0,0,0,11.5-11.5Z"/></g><path class="cls-50" d="M488.52,931.88a2.25,2.25,0,1,1-2.24-2.24A2.24,2.24,0,0,1,488.52,931.88Zm-2.79,10.06a9.43,9.43,0,1,1-9.43-9.42A9.44,9.44,0,0,1,485.73,941.94Zm-3.39,0a6,6,0,1,0-6,6A6,6,0,0,0,482.34,941.94Zm13-7.57a11.5,11.5,0,0,0-11.5-11.5H468.19a11.5,11.5,0,0,0-11.5,11.5v15.69a11.5,11.5,0,0,0,11.5,11.5h15.69a11.5,11.5,0,0,0,11.5-11.5Zm-3.77,15.52a7.9,7.9,0,0,1-7.9,7.9H468.36a7.9,7.9,0,0,1-7.9-7.9V934.54a7.9,7.9,0,0,1,7.9-7.9h15.35a7.9,7.9,0,0,1,7.9,7.9Z"/><path class="cls-51" d="M803.38,976.85a36.47,36.47,0,1,1,36.47-36.47A36.51,36.51,0,0,1,803.38,976.85Z"/><g class="cls-23"><g class="cls-52"><path class="cls-49" d="M819.71,949.42a3.17,3.17,0,0,0-2.72-.61c-.71.29-1.16,1.39-1.62,2a.69.69,0,0,1-.88.19,12.38,12.38,0,0,1-6.16-5.28.76.76,0,0,1,.1-1,4.19,4.19,0,0,0,1.12-1.81,4,4,0,0,0-.5-2.15,5.16,5.16,0,0,0-1.59-2.4,2.17,2.17,0,0,0-2.36.36,4.77,4.77,0,0,0-1.66,3.79,4.89,4.89,0,0,0,.15,1.21,10,10,0,0,0,1.15,2.66,20.85,20.85,0,0,0,1.21,1.84,18.54,18.54,0,0,0,5.24,4.86,15.22,15.22,0,0,0,3.26,1.55,7.11,7.11,0,0,0,3.8.6,4.6,4.6,0,0,0,3.45-2.56,2.27,2.27,0,0,0,.16-1.31C821.66,950.39,820.44,949.86,819.71,949.42Z"/><path class="cls-49" d="M812.64,962.2a15.36,15.36,0,0,1-7.88-2.18l-.65-.39-5.79,1.55,1.54-5.75-.4-.66a15.41,15.41,0,1,1,13.18,7.43Zm0-34.45A19,19,0,0,0,796,956l-2.76,10.31,10.35-2.78a19,19,0,1,0,9-35.74Z"/></g><g class="cls-53"><path class="cls-49" d="M818.89,948.88a3.19,3.19,0,0,0-2.73-.61c-.7.29-1.16,1.4-1.62,2a.66.66,0,0,1-.87.19,12.27,12.27,0,0,1-6.16-5.27.76.76,0,0,1,.09-1,4.13,4.13,0,0,0,1.12-1.82,4,4,0,0,0-.5-2.15,5.06,5.06,0,0,0-1.58-2.39,2.19,2.19,0,0,0-2.37.35,4.82,4.82,0,0,0-1.66,3.8,6.06,6.06,0,0,0,.15,1.2,10.06,10.06,0,0,0,1.16,2.67,20,20,0,0,0,1.21,1.83,18.5,18.5,0,0,0,5.23,4.86,15.59,15.59,0,0,0,3.27,1.56,7.28,7.28,0,0,0,3.8.6,4.6,4.6,0,0,0,3.44-2.57,2.17,2.17,0,0,0,.16-1.3C820.84,949.86,819.62,949.32,818.89,948.88Z"/><path class="cls-49" d="M811.81,961.67a15.4,15.4,0,0,1-7.88-2.19l-.65-.38-5.78,1.55,1.54-5.76-.4-.65a15.41,15.41,0,1,1,13.17,7.43Zm0-34.46a19,19,0,0,0-16.64,28.22l-2.76,10.3L802.77,963a19,19,0,1,0,9-35.75Z"/></g><g class="cls-54"><path class="cls-49" d="M818.06,948.35a3.21,3.21,0,0,0-2.72-.62c-.71.29-1.16,1.4-1.62,2a.69.69,0,0,1-.88.19,12.42,12.42,0,0,1-6.16-5.28.76.76,0,0,1,.1-1,4.16,4.16,0,0,0,1.12-1.82,4,4,0,0,0-.5-2.15,5.08,5.08,0,0,0-1.59-2.39,2.19,2.19,0,0,0-2.36.35,4.81,4.81,0,0,0-1.66,3.8,5,5,0,0,0,.15,1.21,9.79,9.79,0,0,0,1.15,2.66c.37.63.78,1.25,1.21,1.84a18.64,18.64,0,0,0,5.23,4.86,16.58,16.58,0,0,0,3.27,1.55,7.31,7.31,0,0,0,3.8.6,4.6,4.6,0,0,0,3.45-2.56,2.27,2.27,0,0,0,.16-1.31C820,949.32,818.79,948.78,818.06,948.35Z"/><path class="cls-49" d="M811,961.13a15.36,15.36,0,0,1-7.88-2.18l-.65-.39-5.79,1.55,1.54-5.75-.4-.66A15.41,15.41,0,1,1,811,961.13Zm0-34.45a19,19,0,0,0-16.64,28.21l-2.76,10.31,10.35-2.78a19,19,0,1,0,9-35.74Z"/></g><g class="cls-55"><path class="cls-49" d="M817.24,947.81a3.2,3.2,0,0,0-2.73-.61c-.71.29-1.16,1.39-1.62,2a.66.66,0,0,1-.87.19,12.32,12.32,0,0,1-6.16-5.27.76.76,0,0,1,.09-1,4.09,4.09,0,0,0,1.12-1.81,4,4,0,0,0-.5-2.15,5.06,5.06,0,0,0-1.58-2.39,2.17,2.17,0,0,0-2.37.35,4.78,4.78,0,0,0-1.66,3.8,6.06,6.06,0,0,0,.15,1.2,10.06,10.06,0,0,0,1.16,2.67q.56.94,1.2,1.83a18.68,18.68,0,0,0,5.24,4.86A15.75,15.75,0,0,0,812,953a7.33,7.33,0,0,0,3.81.6,4.6,4.6,0,0,0,3.44-2.57,2.19,2.19,0,0,0,.16-1.31C819.19,948.78,818,948.25,817.24,947.81Z"/><path class="cls-49" d="M810.16,960.59a15.39,15.39,0,0,1-7.88-2.18l-.65-.39-5.78,1.55,1.54-5.75-.4-.66a15.41,15.41,0,1,1,13.17,7.43Zm0-34.45a19,19,0,0,0-16.64,28.22l-2.76,10.3,10.36-2.78a19,19,0,1,0,9-35.74Z"/></g><g class="cls-56"><path class="cls-49" d="M816.41,947.27a3.21,3.21,0,0,0-2.72-.61c-.71.29-1.16,1.4-1.62,2a.68.68,0,0,1-.88.19,12.31,12.31,0,0,1-6.16-5.27.75.75,0,0,1,.1-1,4.22,4.22,0,0,0,1.12-1.82,4,4,0,0,0-.5-2.15,5.08,5.08,0,0,0-1.59-2.39,2.17,2.17,0,0,0-2.36.35,5.11,5.11,0,0,0-1.51,5,9.72,9.72,0,0,0,1.15,2.67,21.58,21.58,0,0,0,1.21,1.84,18.78,18.78,0,0,0,5.23,4.86,16.58,16.58,0,0,0,3.27,1.55,7.31,7.31,0,0,0,3.8.6,4.63,4.63,0,0,0,3.45-2.56,2.29,2.29,0,0,0,.16-1.31C818.36,948.25,817.14,947.71,816.41,947.27Z"/><path class="cls-49" d="M809.33,960.06a15.45,15.45,0,0,1-7.87-2.18l-.65-.39L795,959l1.54-5.75-.4-.66a15.41,15.41,0,1,1,13.17,7.43Zm0-34.45a19,19,0,0,0-16.63,28.21l-2.77,10.3,10.36-2.77a19,19,0,1,0,9-35.74Z"/></g><g class="cls-57"><path class="cls-49" d="M815.59,946.74a3.24,3.24,0,0,0-2.73-.62c-.71.29-1.16,1.4-1.62,2a.67.67,0,0,1-.87.19,12.29,12.29,0,0,1-6.16-5.28.75.75,0,0,1,.09-1,4.09,4.09,0,0,0,1.12-1.81,4,4,0,0,0-.5-2.15,5.09,5.09,0,0,0-1.59-2.4A2.19,2.19,0,0,0,801,936a4.81,4.81,0,0,0-1.66,3.8,6.07,6.07,0,0,0,.15,1.21,9.82,9.82,0,0,0,1.16,2.66,20.75,20.75,0,0,0,1.2,1.84,18.54,18.54,0,0,0,5.24,4.86,15.22,15.22,0,0,0,3.26,1.55,7.11,7.11,0,0,0,3.8.6,4.59,4.59,0,0,0,3.45-2.56,2.19,2.19,0,0,0,.16-1.31C817.53,947.71,816.31,947.17,815.59,946.74Z"/><path class="cls-49" d="M808.51,959.52a15.39,15.39,0,0,1-7.88-2.18L800,957l-5.78,1.55,1.54-5.75-.4-.66a15.41,15.41,0,1,1,13.17,7.43Zm0-34.45a19,19,0,0,0-16.64,28.21l-2.76,10.31,10.36-2.78a19,19,0,1,0,9-35.74Z"/></g><g class="cls-58"><path class="cls-49" d="M814.76,946.2a3.17,3.17,0,0,0-2.72-.61c-.71.29-1.16,1.4-1.62,2a.68.68,0,0,1-.88.19,12.36,12.36,0,0,1-6.16-5.27.75.75,0,0,1,.1-1,4.28,4.28,0,0,0,1.12-1.82,4,4,0,0,0-.5-2.15,5.08,5.08,0,0,0-1.59-2.39,2.15,2.15,0,0,0-2.36.35,4.78,4.78,0,0,0-1.66,3.8,5.39,5.39,0,0,0,.14,1.2,10.06,10.06,0,0,0,1.16,2.67,20,20,0,0,0,1.21,1.83,18.64,18.64,0,0,0,5.23,4.86,16.08,16.08,0,0,0,3.27,1.56,7.31,7.31,0,0,0,3.8.6,4.62,4.62,0,0,0,3.45-2.57,2.24,2.24,0,0,0,.16-1.3C816.71,947.17,815.49,946.64,814.76,946.2Z"/><path class="cls-49" d="M807.68,959a15.37,15.37,0,0,1-7.87-2.19l-.65-.39L793.37,958l1.54-5.76-.4-.65A15.41,15.41,0,1,1,807.68,959Zm0-34.46a19,19,0,0,0-16.63,28.22l-2.77,10.3,10.36-2.77a19,19,0,1,0,9-35.75Z"/></g><g class="cls-59"><path class="cls-49" d="M813.93,945.67a3.18,3.18,0,0,0-2.72-.62c-.71.29-1.16,1.4-1.62,2a.68.68,0,0,1-.88.19,12.36,12.36,0,0,1-6.15-5.28.75.75,0,0,1,.09-1,4.07,4.07,0,0,0,1.12-1.82,4,4,0,0,0-.5-2.15,5.08,5.08,0,0,0-1.59-2.39,2.19,2.19,0,0,0-2.36.35,4.79,4.79,0,0,0-1.66,3.8,5,5,0,0,0,.15,1.21,9.82,9.82,0,0,0,1.16,2.66c.37.63.77,1.25,1.2,1.84a18.69,18.69,0,0,0,5.24,4.86,16.24,16.24,0,0,0,3.26,1.55,7.31,7.31,0,0,0,3.8.6,4.59,4.59,0,0,0,3.45-2.56,2.2,2.2,0,0,0,.16-1.31C815.88,946.64,814.66,946.1,813.93,945.67Z"/><path class="cls-49" d="M806.86,958.45a15.49,15.49,0,0,1-7.88-2.18l-.65-.39-5.79,1.55,1.55-5.75-.4-.66a15.41,15.41,0,1,1,13.17,7.43Zm0-34.45a19,19,0,0,0-16.64,28.21l-2.76,10.3,10.35-2.77A19,19,0,1,0,806.86,924Z"/></g><g class="cls-60"><path class="cls-49" d="M813.11,945.13a3.19,3.19,0,0,0-2.73-.61c-.7.29-1.15,1.39-1.61,2a.68.68,0,0,1-.88.19,12.33,12.33,0,0,1-6.16-5.28.75.75,0,0,1,.1-1,4.19,4.19,0,0,0,1.12-1.81,4,4,0,0,0-.5-2.15c-.38-.8-.79-1.94-1.59-2.39a2.15,2.15,0,0,0-2.36.35,4.78,4.78,0,0,0-1.67,3.79,6.07,6.07,0,0,0,.15,1.21,10,10,0,0,0,1.16,2.66,19.52,19.52,0,0,0,6.44,6.7,15.53,15.53,0,0,0,3.27,1.55,7.11,7.11,0,0,0,3.8.6,4.59,4.59,0,0,0,3.44-2.56,2.19,2.19,0,0,0,.16-1.31C815.06,946.1,813.84,945.57,813.11,945.13Z"/><path class="cls-49" d="M806,957.91a15.33,15.33,0,0,1-7.87-2.18l-.66-.39-5.78,1.55,1.54-5.75-.4-.66A15.41,15.41,0,1,1,806,957.91Zm0-34.45a19,19,0,0,0-16.64,28.21L786.63,962,797,959.2a19,19,0,1,0,9-35.74Z"/></g><g class="cls-61"><path class="cls-49" d="M812.28,944.59a3.21,3.21,0,0,0-2.72-.61c-.71.29-1.16,1.4-1.62,2a.67.67,0,0,1-.88.19,12.29,12.29,0,0,1-6.15-5.27.75.75,0,0,1,.09-1,4.22,4.22,0,0,0,1.12-1.82,4,4,0,0,0-.5-2.15,5.08,5.08,0,0,0-1.59-2.39,2.17,2.17,0,0,0-2.36.35,5.11,5.11,0,0,0-1.51,5,10,10,0,0,0,1.15,2.67c.38.63.78,1.24,1.21,1.83a18.72,18.72,0,0,0,5.24,4.87,16.24,16.24,0,0,0,3.26,1.55,7.31,7.31,0,0,0,3.8.6,4.6,4.6,0,0,0,3.45-2.57,2.24,2.24,0,0,0,.16-1.3C814.23,945.57,813,945,812.28,944.59Z"/><path class="cls-49" d="M805.21,957.38a15.49,15.49,0,0,1-7.88-2.18l-.65-.39-5.79,1.55,1.55-5.76L792,950a15.41,15.41,0,1,1,13.17,7.43Zm0-34.46a19,19,0,0,0-16.64,28.22l-2.76,10.3,10.35-2.77a19,19,0,1,0,9.05-35.75Z"/></g><g class="cls-62"><path class="cls-49" d="M811.46,944.06a3.22,3.22,0,0,0-2.73-.62c-.7.29-1.16,1.4-1.61,2a.69.69,0,0,1-.88.19,12.33,12.33,0,0,1-6.16-5.28.75.75,0,0,1,.1-1,4.16,4.16,0,0,0,1.12-1.82,4,4,0,0,0-.51-2.15,5.16,5.16,0,0,0-1.58-2.39,2.19,2.19,0,0,0-2.36.35,4.81,4.81,0,0,0-1.67,3.8,6.16,6.16,0,0,0,.15,1.21,10.14,10.14,0,0,0,1.16,2.66,20.11,20.11,0,0,0,1.21,1.84,18.64,18.64,0,0,0,5.23,4.86,16,16,0,0,0,3.27,1.55,7.31,7.31,0,0,0,3.8.6,4.59,4.59,0,0,0,3.44-2.56,2.19,2.19,0,0,0,.16-1.31C813.41,945,812.19,944.49,811.46,944.06Z"/><path class="cls-49" d="M804.38,956.84a15.33,15.33,0,0,1-7.87-2.18l-.66-.39-5.78,1.55,1.54-5.75-.4-.66a15.41,15.41,0,1,1,13.17,7.43Zm0-34.45a19,19,0,0,0-16.64,28.21L785,960.91l10.36-2.78a19,19,0,1,0,9-35.74Z"/></g><path class="cls-49" d="M810.63,943.52a3.17,3.17,0,0,0-2.72-.61c-.71.29-1.16,1.4-1.62,2a.68.68,0,0,1-.88.19,12.34,12.34,0,0,1-6.15-5.27.76.76,0,0,1,.09-1,4.19,4.19,0,0,0,1.12-1.81,4,4,0,0,0-.5-2.15,5.08,5.08,0,0,0-1.59-2.39,2.16,2.16,0,0,0-2.36.35,4.78,4.78,0,0,0-1.66,3.8,4.87,4.87,0,0,0,.15,1.2,10,10,0,0,0,1.15,2.67c.37.63.78,1.24,1.21,1.83a18.54,18.54,0,0,0,5.24,4.86,15.75,15.75,0,0,0,3.26,1.56,7.31,7.31,0,0,0,3.8.6,4.62,4.62,0,0,0,3.45-2.57,2.27,2.27,0,0,0,.16-1.31C812.58,944.49,811.36,944,810.63,943.52Z"/><path class="cls-49" d="M803.56,956.3a15.36,15.36,0,0,1-7.88-2.18l-.65-.39-5.79,1.55,1.54-5.75-.4-.66a15.41,15.41,0,1,1,13.18,7.43Zm0-34.45a19,19,0,0,0-16.64,28.22l-2.76,10.3,10.35-2.78a19,19,0,1,0,9-35.74Z"/></g><path class="cls-50" d="M810.63,943.52a3.17,3.17,0,0,0-2.72-.61c-.71.29-1.16,1.4-1.62,2a.68.68,0,0,1-.88.19,12.34,12.34,0,0,1-6.15-5.27.76.76,0,0,1,.09-1,4.19,4.19,0,0,0,1.12-1.81,4,4,0,0,0-.5-2.15,5.08,5.08,0,0,0-1.59-2.39,2.16,2.16,0,0,0-2.36.35,4.78,4.78,0,0,0-1.66,3.8,4.87,4.87,0,0,0,.15,1.2,10,10,0,0,0,1.15,2.67c.37.63.78,1.24,1.21,1.83a18.54,18.54,0,0,0,5.24,4.86,15.75,15.75,0,0,0,3.26,1.56,7.31,7.31,0,0,0,3.8.6,4.62,4.62,0,0,0,3.45-2.57,2.27,2.27,0,0,0,.16-1.31C812.58,944.49,811.36,944,810.63,943.52Z"/><path class="cls-50" d="M803.56,921.85a19,19,0,0,0-16.64,28.22l-2.76,10.3,10.35-2.78a19,19,0,1,0,9-35.74Zm0,34.45a15.36,15.36,0,0,1-7.88-2.18l-.65-.39-5.79,1.55,1.54-5.75-.4-.66a15.41,15.41,0,1,1,13.18,7.43Z"/><path class="cls-63" d="M694.17,978.42A36.47,36.47,0,1,1,730.64,942,36.51,36.51,0,0,1,694.17,978.42Z"/><g class="cls-23"><g class="cls-52"><path class="cls-49" d="M716.21,931.91q-8.15-.25-11,9.19a7.47,7.47,0,0,1,2.9-.64q3,0,2.64,3.36-.18,2-2.64,5.91t-3.69,3.88c-1.06,0-2-2-2.9-6-.3-1.17-.82-4.16-1.58-9q-1.06-6.69-5.63-6.25-1.93.18-5.8,3.52-2.82,2.55-5.71,5.1l1.84,2.37a11.92,11.92,0,0,1,3.07-1.84c1.35,0,2.6,2.11,3.77,6.32q1.59,5.79,3.16,11.59,2.37,6.33,5.79,6.32,5.54,0,13.51-10.38,7.73-9.95,8-15.66Q722.25,932.09,716.21,931.91Z"/></g><g class="cls-53"><path class="cls-49" d="M715.38,931.38q-8.13-.27-11,9.19a7.25,7.25,0,0,1,2.9-.64c2,0,2.84,1.11,2.63,3.35-.13,1.35-1,3.32-2.63,5.92s-2.88,3.88-3.7,3.88c-1,0-2-2-2.9-6-.27-1.17-.82-4.16-1.58-9q-1.05-6.69-5.62-6.25c-1.29.12-3.25,1.26-5.81,3.51-1.89,1.68-3.78,3.4-5.71,5.1l1.84,2.38a12.09,12.09,0,0,1,3.08-1.85c1.34,0,2.61,2.11,3.77,6.32,1.06,3.86,2.1,7.73,3.16,11.59,1.57,4.22,3.51,6.32,5.79,6.32,3.68,0,8.17-3.47,13.51-10.38,5.13-6.63,7.81-11.84,8-15.65C721.3,934.1,719.41,931.5,715.38,931.38Z"/></g><g class="cls-54"><path class="cls-49" d="M714.56,930.84q-8.14-.27-11,9.19a7.29,7.29,0,0,1,2.9-.64c2,0,2.85,1.12,2.63,3.36-.12,1.35-1,3.32-2.63,5.91s-2.87,3.88-3.69,3.88c-1.06,0-2-2-2.9-6-.28-1.18-.82-4.17-1.58-9-.71-4.46-2.58-6.53-5.63-6.25-1.29.12-3.25,1.26-5.8,3.52-1.9,1.68-3.78,3.4-5.71,5.1l1.84,2.37a12.13,12.13,0,0,1,3.07-1.85q2,0,3.77,6.33c1.07,3.86,2.11,7.72,3.16,11.59q2.37,6.32,5.79,6.32c3.69,0,8.17-3.47,13.51-10.38,5.13-6.64,7.81-11.85,8-15.66Q720.6,931,714.56,930.84Z"/></g><g class="cls-55"><path class="cls-49" d="M713.73,930.3q-8.13-.25-11,9.2a7.26,7.26,0,0,1,2.89-.65c2,0,2.85,1.12,2.64,3.36-.13,1.35-1,3.32-2.64,5.91s-2.87,3.89-3.69,3.89c-1,0-2-2-2.9-6-.27-1.18-.82-4.16-1.58-9q-1-6.69-5.62-6.25c-1.29.12-3.26,1.26-5.81,3.51-1.89,1.68-3.78,3.4-5.71,5.1l1.84,2.37a12.1,12.1,0,0,1,3.07-1.84c1.35,0,2.62,2.1,3.78,6.32,1.06,3.86,2.1,7.73,3.16,11.59q2.36,6.33,5.79,6.32c3.68,0,8.17-3.47,13.51-10.38,5.13-6.64,7.8-11.84,8-15.66Q719.77,930.48,713.73,930.3Z"/></g><g class="cls-56"><path class="cls-49" d="M712.91,929.77q-8.14-.27-11,9.19a7.25,7.25,0,0,1,2.9-.64c2,0,2.85,1.12,2.63,3.35-.13,1.35-1,3.33-2.63,5.92s-2.87,3.88-3.69,3.88c-1.06,0-2-2-2.9-6-.28-1.17-.82-4.16-1.58-9q-1.07-6.69-5.63-6.25c-1.29.12-3.25,1.26-5.8,3.52-1.9,1.67-3.78,3.4-5.71,5.09l1.84,2.38a12.13,12.13,0,0,1,3.07-1.85c1.34,0,2.61,2.11,3.77,6.32q1.59,5.81,3.16,11.6,2.37,6.31,5.79,6.32c3.69,0,8.17-3.48,13.51-10.38,5.13-6.64,7.81-11.85,8-15.66Q719,930,712.91,929.77Z"/></g><g class="cls-57"><path class="cls-49" d="M712.08,929.23q-8.13-.26-11,9.19a7.42,7.42,0,0,1,2.89-.64c2,0,2.85,1.12,2.64,3.36-.13,1.35-1,3.32-2.64,5.91s-2.87,3.88-3.69,3.88c-1,0-2-2-2.9-6-.27-1.18-.82-4.17-1.58-9-.7-4.46-2.58-6.53-5.63-6.25-1.28.12-3.25,1.26-5.8,3.52-1.89,1.68-3.78,3.4-5.71,5.1l1.84,2.37a12.32,12.32,0,0,1,3.07-1.85q2,0,3.78,6.33c1.06,3.86,2.1,7.72,3.16,11.59q2.35,6.32,5.79,6.32c3.68,0,8.17-3.47,13.51-10.38q7.69-10,8-15.66Q718.12,929.41,712.08,929.23Z"/></g><g class="cls-58"><path class="cls-49" d="M711.26,928.69q-8.14-.26-11,9.2a7.27,7.27,0,0,1,2.9-.65c2,0,2.85,1.12,2.63,3.36-.13,1.35-1,3.32-2.63,5.91s-2.87,3.89-3.69,3.89c-1.06,0-2-2-2.9-6-.28-1.17-.82-4.16-1.59-9q-1.05-6.69-5.62-6.25c-1.29.12-3.25,1.26-5.8,3.51-1.9,1.68-3.78,3.4-5.72,5.1l1.85,2.37a12.27,12.27,0,0,1,3.07-1.84c1.34,0,2.61,2.11,3.77,6.32q1.59,5.79,3.16,11.59,2.37,6.33,5.79,6.32c3.68,0,8.17-3.47,13.51-10.38,5.13-6.63,7.81-11.84,8-15.65C717.17,931.42,715.28,928.82,711.26,928.69Z"/></g><g class="cls-59"><path class="cls-49" d="M710.43,928.16q-8.13-.27-11,9.19a7.33,7.33,0,0,1,2.9-.64c2,0,2.85,1.12,2.64,3.36-.13,1.35-1,3.32-2.64,5.91s-2.87,3.88-3.69,3.88c-1.06,0-2-2-2.9-6-.28-1.18-.82-4.17-1.58-9-.71-4.46-2.58-6.53-5.63-6.25-1.29.12-3.25,1.26-5.8,3.52-1.89,1.67-3.78,3.4-5.71,5.09l1.84,2.38a12.32,12.32,0,0,1,3.07-1.85q2,0,3.77,6.33c1.07,3.86,2.11,7.72,3.17,11.59q2.35,6.31,5.78,6.32c3.69,0,8.17-3.47,13.51-10.38q7.71-10,8-15.66Q716.47,928.34,710.43,928.16Z"/></g><g class="cls-60"><path class="cls-49" d="M709.61,927.62q-8.15-.25-11,9.19a7.43,7.43,0,0,1,2.9-.64c2,0,2.85,1.12,2.63,3.36-.13,1.35-1,3.32-2.63,5.91s-2.87,3.89-3.69,3.89c-1.06,0-2-2-2.9-6-.28-1.18-.83-4.16-1.59-9-.7-4.46-2.57-6.53-5.62-6.24-1.29.12-3.25,1.25-5.8,3.51-1.9,1.68-3.78,3.4-5.72,5.1L678,939.1a11.92,11.92,0,0,1,3.07-1.84c1.34,0,2.61,2.1,3.77,6.32q1.59,5.79,3.16,11.59,2.37,6.33,5.79,6.32c3.68,0,8.17-3.47,13.51-10.38,5.13-6.64,7.81-11.84,8-15.66Q715.64,927.8,709.61,927.62Z"/></g><g class="cls-61"><path class="cls-49" d="M708.78,927.09q-8.14-.27-11,9.19a7.29,7.29,0,0,1,2.9-.64c2,0,2.85,1.11,2.64,3.35-.13,1.35-1,3.32-2.64,5.92s-2.87,3.88-3.69,3.88c-1.06,0-2-2-2.9-6-.28-1.17-.82-4.16-1.58-9q-1.07-6.69-5.63-6.25c-1.29.12-3.25,1.26-5.8,3.51-1.89,1.68-3.78,3.4-5.71,5.1l1.84,2.38a12.32,12.32,0,0,1,3.07-1.85q2,0,3.77,6.32c1.07,3.86,2.11,7.73,3.16,11.59Q689.55,961,693,961c3.69,0,8.17-3.48,13.51-10.38,5.13-6.64,7.81-11.85,8-15.66Q714.82,927.27,708.78,927.09Z"/></g><g class="cls-62"><path class="cls-49" d="M708,926.55q-8.13-.25-11,9.19a7.43,7.43,0,0,1,2.9-.64c2,0,2.85,1.12,2.63,3.36-.13,1.35-1,3.32-2.63,5.91s-2.87,3.88-3.69,3.88c-1.06,0-2-2-2.9-6-.28-1.18-.83-4.17-1.59-9-.7-4.46-2.57-6.53-5.62-6.25-1.29.12-3.25,1.26-5.8,3.52-1.9,1.68-3.78,3.4-5.72,5.1l1.85,2.37a12.13,12.13,0,0,1,3.07-1.85c1.34,0,2.61,2.11,3.77,6.33q1.59,5.79,3.16,11.59,2.37,6.31,5.79,6.32c3.68,0,8.17-3.47,13.51-10.38,5.13-6.64,7.81-11.85,8-15.66Q714,926.73,708,926.55Z"/></g><path class="cls-49" d="M707.13,926q-8.14-.25-11,9.2a7.31,7.31,0,0,1,2.9-.65q3,0,2.64,3.36-.18,2-2.64,5.91t-3.69,3.89c-1.06,0-2-2-2.9-6-.3-1.17-.82-4.16-1.58-9q-1.07-6.69-5.63-6.25c-1.29.11-3.22,1.29-5.8,3.51q-2.82,2.55-5.71,5.1l1.84,2.37a12.27,12.27,0,0,1,3.07-1.84c1.35,0,2.6,2.11,3.77,6.32q1.59,5.81,3.16,11.59,2.37,6.33,5.79,6.32,5.53,0,13.51-10.38,7.73-9.93,8-15.65Q713.17,926.19,707.13,926Z"/></g><path class="cls-50" d="M707.13,926q-8.14-.25-11,9.2a7.31,7.31,0,0,1,2.9-.65q3,0,2.64,3.36-.18,2-2.64,5.91t-3.69,3.89c-1.06,0-2-2-2.9-6-.3-1.17-.82-4.16-1.58-9q-1.07-6.69-5.63-6.25c-1.29.11-3.22,1.29-5.8,3.51q-2.82,2.55-5.71,5.1l1.84,2.37a12.27,12.27,0,0,1,3.07-1.84c1.35,0,2.6,2.11,3.77,6.32q1.59,5.81,3.16,11.59,2.37,6.33,5.79,6.32,5.53,0,13.51-10.38,7.73-9.93,8-15.65Q713.17,926.19,707.13,926Z"/></g></g></svg>